<svg xmlns="http://www.w3.org/2000/svg" width="141.837" height="141.837" viewBox="0 0 141.837 141.837"><defs><style>.a{fill:#4c2f6e;}</style></defs><path class="a" d="M194.078,172.777h12.466a10.389,10.389,0,0,0,0-20.777H194.078A2.078,2.078,0,0,0,192,154.078V170.7A2.078,2.078,0,0,0,194.078,172.777Zm2.078-16.622h10.388a6.233,6.233,0,0,1,0,12.466H196.155Z" transform="translate(-133.319 -104.16)"/><path class="a" d="M181.381,130.11a18.711,18.711,0,0,0-10.06-26.817V98.078A2.078,2.078,0,0,0,169.243,96h-8.311a2.078,2.078,0,0,0-2.078,2.078v4.155H154.7V98.078A2.078,2.078,0,0,0,152.621,96h-8.311a2.078,2.078,0,0,0-2.078,2.078v4.155h-4.155A2.078,2.078,0,0,0,136,104.311v8.311a2.078,2.078,0,0,0,2.078,2.078h4.155v37.4h-4.155A2.078,2.078,0,0,0,136,154.176v8.311a2.078,2.078,0,0,0,2.078,2.078h4.155v4.155a2.078,2.078,0,0,0,2.078,2.078h8.311a2.078,2.078,0,0,0,2.078-2.078v-4.155h4.155v4.155a2.078,2.078,0,0,0,2.078,2.078h8.311a2.078,2.078,0,0,0,2.078-2.078v-4.155a18.7,18.7,0,0,0,10.06-34.455Zm-10.06,30.3h-2.078a2.078,2.078,0,0,0-2.078,2.078v4.155H163.01v-4.155a2.078,2.078,0,0,0-2.078-2.078h-8.311a2.078,2.078,0,0,0-2.078,2.078v4.155h-4.155v-4.155a2.078,2.078,0,0,0-2.078-2.078h-4.155v-4.155h4.155a2.078,2.078,0,0,0,2.078-2.078V112.622a2.078,2.078,0,0,0-2.078-2.078h-4.155v-4.155h4.155a2.078,2.078,0,0,0,2.078-2.078v-4.155h4.155v4.155a2.078,2.078,0,0,0,2.078,2.078h8.311a2.078,2.078,0,0,0,2.078-2.078v-4.155h4.155v4.675a2.078,2.078,0,0,0,1.558,2.011A14.544,14.544,0,0,1,176.76,129.6a2.077,2.077,0,0,0,.779,3.117,14.544,14.544,0,0,1-6.218,27.687Z" transform="translate(-91.862 -62.704)"/><path class="a" d="M212.777,248h-18.7A2.078,2.078,0,0,0,192,250.078V266.7a2.078,2.078,0,0,0,2.078,2.078h18.7a10.389,10.389,0,0,0,0-20.777Zm0,16.622H196.155V252.155h16.621a6.233,6.233,0,0,1,0,12.466Z" transform="translate(-133.319 -175.227)"/><path class="a" d="M70.918,0a70.918,70.918,0,1,0,70.918,70.918A70.919,70.919,0,0,0,70.918,0Zm0,137.109a66.191,66.191,0,1,1,66.191-66.191A66.19,66.19,0,0,1,70.918,137.109Z"/><path class="a" d="M90.155,32a58.155,58.155,0,1,0,58.155,58.155A58.155,58.155,0,0,0,90.155,32Zm0,111.836a53.681,53.681,0,1,1,53.681-53.681A53.681,53.681,0,0,1,90.155,143.836Z" transform="translate(-19.012 -19.46)"/></svg>