<svg xmlns="http://www.w3.org/2000/svg" xmlns:xlink="http://www.w3.org/1999/xlink" width="85.484" height="86.887" viewBox="0 0 85.484 86.887"><defs><style>.a{fill:url(#a);}</style><linearGradient id="a" x1="0.5" x2="0.5" y2="1" gradientUnits="objectBoundingBox"><stop offset="0" stop-color="#8b336a"/><stop offset="1" stop-color="#4a2f6e"/></linearGradient></defs><path class="a" d="M212.2,248v2.8H208v19.62h4.2v2.8h2.8v-2.8h1.4a5.6,5.6,0,0,0,3.7-9.81,5.6,5.6,0,0,0-3.7-9.81h-1.4V248Zm4.2,19.62H210.8v-5.606h5.606a2.8,2.8,0,1,1,0,5.606Zm2.8-11.211a2.806,2.806,0,0,1-2.8,2.8H210.8v-5.606h5.606A2.806,2.806,0,0,1,219.211,256.408Zm0,0" transform="translate(-171.564 -204.557)"/><path class="a" d="M148.314,252.871a18.209,18.209,0,0,0,25.664,25.664l-1.811-2.138a15.407,15.407,0,0,1-21.715-21.715Zm0,0" transform="translate(-118.775 -208.574)"/><path class="a" d="M220.658,228.613H209.947a18.191,18.191,0,0,0-29.076-8.3l1.811,2.138a15.391,15.391,0,0,1,24.857,7.912l.272,1.051h12.848Zm0,0" transform="translate(-149.187 -178.162)"/><path class="a" d="M315.168,343.146l2.138,1.811a18.3,18.3,0,0,0,3.419-6.154h5.1V336H318.59l-.272,1.051A15.5,15.5,0,0,1,315.168,343.146Zm0,0" transform="translate(-259.958 -277.141)"/><path class="a" d="M424,288h2.8v2.8H424Zm0,0" transform="translate(-349.726 -237.55)"/><path class="a" d="M392,336h2.8v2.8H392Zm0,0" transform="translate(-323.331 -277.141)"/><path class="a" d="M43.443,32.232c-.474,0-.935.043-1.4.071V19.62h2.617l.8-5.587a46.333,46.333,0,0,1,20,4.847l1.48.74H70.07V5.883L67.3,5.269A103.851,103.851,0,0,0,46.241,2.842L46.246,0H26.627V2.848A55.6,55.6,0,0,0,1.082,9.784L0,10.387v3.627H27.42l.793,5.606h2.618V35.881a23.758,23.758,0,0,0,0,40.349V86.887H42.042V79.809c.467.028.928.071,1.4.071a23.65,23.65,0,0,0,21-12.613H79.88v-2.8H62.707l-.384.788a21.021,21.021,0,1,1,0-18.392l.384.788H79.88v-2.8H64.44A23.65,23.65,0,0,0,43.443,32.232ZM66.7,8l.571.127v8.521l-.556-.279a49.136,49.136,0,0,0-20.854-5.132l.376-2.634.005-2.963A101.014,101.014,0,0,1,66.7,8ZM4.381,11.211A52.817,52.817,0,0,1,26.627,5.646V8.408l.4,2.8ZM39.239,84.084H33.634V77.741a23.628,23.628,0,0,0,5.606,1.743ZM29.429,8.309V2.8H43.443V8.309l-1.215,8.508H30.645Zm4.2,11.31h5.606V32.626a23.661,23.661,0,0,0-5.606,1.744Zm0,0" transform="translate(0)"/><path class="a" d="M472,256h2.8v2.8H472Zm0,0" transform="translate(-389.317 -211.155)"/><path class="a" d="M472,368h2.8v2.8H472Zm0,0" transform="translate(-389.317 -303.536)"/><path class="a" d="M72,96h2.8v2.8H72Zm0,0" transform="translate(-59.387 -79.183)"/><path class="a" d="M72,240h2.8v2.8H72Zm0,0" transform="translate(-59.387 -197.958)"/><path class="a" d="M144,168h2.8v2.8H144Zm0,0" transform="translate(-118.775 -138.571)"/><path class="a" d="M0,168H2.8v2.8H0Zm0,0" transform="translate(0 -138.571)"/><path class="a" d="M48.817,135.007A7.015,7.015,0,0,1,41.81,128h-2.8A7.015,7.015,0,0,1,32,135.007v2.8a7.015,7.015,0,0,1,7.007,7.007h2.8a7.015,7.015,0,0,1,7.007-7.007Zm-8.408,4.783a9.861,9.861,0,0,0-3.382-3.382,9.861,9.861,0,0,0,3.382-3.382,9.861,9.861,0,0,0,3.382,3.382A9.861,9.861,0,0,0,40.408,139.79Zm0,0" transform="translate(-26.394 -105.578)"/></svg>