<svg xmlns="http://www.w3.org/2000/svg" xmlns:xlink="http://www.w3.org/1999/xlink" width="703.211" height="529.143" viewBox="0 0 703.211 529.143"><defs><style>.a,.f,.g{fill:none;}.a{stroke:#9b93b4;stroke-width:3px;}.b{fill:#9b93b4;}.c{fill:#272222;}.d{fill:url(#a);}.e{fill:#fff;}.f{stroke:#fff;stroke-width:1.2px;}.h{stroke:none;}</style><linearGradient id="a" x1="0.174" y1="-0.143" x2="1.094" y2="1.199" gradientUnits="objectBoundingBox"><stop offset="0" stop-color="#8b336a"/><stop offset="1" stop-color="#4a2f6e"/></linearGradient></defs><g transform="translate(0 -1.488)"><g transform="translate(0 0)"><g transform="translate(0 131.165)"><path class="a" d="M14208.916,18358.32h371.509" transform="translate(-14177.534 -18227.592)"/><g class="a" transform="translate(400.049 116.568) rotate(-9)"><circle class="h" cx="17.031" cy="17.031" r="17.031"/><circle class="g" cx="17.031" cy="17.031" r="15.531"/></g><path class="a" d="M14194.056,18336.266l49.9,47.893h186.393" transform="translate(-13941.051 -18205.693)"/><circle class="b" cx="17.031" cy="17.031" r="17.031" transform="translate(487.02 164.302) rotate(-9)"/><path class="a" d="M14194.056,18398.859l45.308-62.59h167.192" transform="translate(-13864.41 -18268.133)"/><g class="a" transform="translate(544.639 47.617) rotate(9)"><ellipse class="h" cx="17.031" cy="17.031" rx="17.031" ry="17.031"/><ellipse class="g" cx="17.031" cy="17.031" rx="15.531" ry="15.531"/></g><circle class="b" cx="17.031" cy="17.031" r="17.031" transform="translate(0 116.568) rotate(-9)"/><path class="a" d="M14194.056,18383.523l45.308-47.254h41.1" transform="translate(-14035.865 -18253.26)"/><ellipse class="b" cx="17.031" cy="17.031" rx="17.031" ry="17.031" transform="translate(246.263 63.523) rotate(9)"/><path class="a" d="M14194.479,18336.879l44.107,66.906h66.352" transform="translate(-14108.885 -18205.84)"/><g class="a" transform="translate(193.342 181.619) rotate(-9)"><ellipse class="h" cx="17.031" cy="17.031" rx="17.031" ry="17.031"/><ellipse class="g" cx="17.031" cy="17.031" rx="15.531" ry="15.531"/></g><path class="a" d="M14194.055,18336.266l19.855,47.254h47.635" transform="translate(-14035.867 -18138.018)"/><ellipse class="b" cx="17.031" cy="17.03" rx="17.031" ry="17.03" transform="translate(230.666 231.35) rotate(-9)"/><path class="a" d="M14194.056,18384.158l36.04-47.893h134.648" transform="translate(-13762.22 -18316.781)"/><ellipse class="b" cx="17.031" cy="17.031" rx="17.031" ry="17.031" transform="translate(603.05 0) rotate(9)"/><path class="a" d="M14194.728,18435.084l100.667-98.814h109.923" transform="translate(-14108.964 -18305.033)"/><g class="a" transform="translate(298.841 10.716) rotate(9)"><ellipse class="h" cx="17.031" cy="17.031" rx="17.031" ry="17.031"/><ellipse class="g" cx="17.031" cy="17.031" rx="15.531" ry="15.531"/></g><path class="a" d="M14193.43,18336.238l33.208,47.965h85.763" transform="translate(-13862.327 -18157.58)"/><g class="a" transform="translate(445.209 212.465) rotate(-9)"><ellipse class="h" cx="17.031" cy="17.03" rx="17.031" ry="17.03"/><ellipse class="g" cx="17.031" cy="17.03" rx="15.531" ry="15.53"/></g></g><g transform="translate(281.493 0)"><path class="c" d="M-33.012-7.112-35.084-4.9V0h-5.488V-19.6h5.488v8.148L-27.5-19.6h6.1L-29.4-10.92-20.972,0h-6.44Zm16.632-6.244a4.951,4.951,0,0,1,2.114-1.554,8.02,8.02,0,0,1,2.982-.518v4.788a10.876,10.876,0,0,0-1.2-.084,3.71,3.71,0,0,0-2.674.924,3.746,3.746,0,0,0-.966,2.828V0h-5.32V-15.176h5.068Zm5.88-1.82h5.32V0H-10.5Zm2.66-1.68a3.368,3.368,0,0,1-2.352-.812,2.611,2.611,0,0,1-.9-2.016,2.611,2.611,0,0,1,.9-2.016,3.368,3.368,0,0,1,2.352-.812,3.482,3.482,0,0,1,2.352.77,2.485,2.485,0,0,1,.9,1.974,2.715,2.715,0,0,1-.9,2.086A3.333,3.333,0,0,1-7.84-16.856ZM6.412-15.428a7.467,7.467,0,0,1,3.766.966,7.039,7.039,0,0,1,2.688,2.744,8.323,8.323,0,0,1,.994,4.13,8.323,8.323,0,0,1-.994,4.13A7.039,7.039,0,0,1,10.178-.714,7.467,7.467,0,0,1,6.412.252a5.657,5.657,0,0,1-4.228-1.6V5.432h-5.32V-15.176H1.932v1.512A5.525,5.525,0,0,1,6.412-15.428ZM5.292-3.976a2.992,2.992,0,0,0,2.3-.966,3.739,3.739,0,0,0,.9-2.646,3.739,3.739,0,0,0-.9-2.646,2.992,2.992,0,0,0-2.3-.966,2.992,2.992,0,0,0-2.3.966,3.739,3.739,0,0,0-.9,2.646A3.739,3.739,0,0,0,3-4.942,2.992,2.992,0,0,0,5.292-3.976ZM25.4-.616a5.36,5.36,0,0,1-1.638.644A9.091,9.091,0,0,1,21.7.252,6.538,6.538,0,0,1,17.136-1.2a5.584,5.584,0,0,1-1.6-4.34v-5.1H13.328v-3.976H15.54v-3.948h5.32v3.948h3.472v3.976H20.86V-5.6a1.787,1.787,0,0,0,.434,1.274,1.518,1.518,0,0,0,1.162.462A2.818,2.818,0,0,0,24.08-4.34Zm7.812.868a9.47,9.47,0,0,1-4.4-1.008,7.608,7.608,0,0,1-3.066-2.8,7.572,7.572,0,0,1-1.106-4.06,7.521,7.521,0,0,1,1.106-4.032A7.532,7.532,0,0,1,28.8-14.434a9.556,9.556,0,0,1,4.41-.994,9.642,9.642,0,0,1,4.424.994,7.446,7.446,0,0,1,3.052,2.772,7.574,7.574,0,0,1,1.092,4.046,7.646,7.646,0,0,1-1.092,4.06,7.51,7.51,0,0,1-3.052,2.8A9.532,9.532,0,0,1,33.208.252Zm0-4.228a2.992,2.992,0,0,0,2.3-.966,3.781,3.781,0,0,0,.9-2.674,3.688,3.688,0,0,0-.9-2.632,3.013,3.013,0,0,0-2.3-.952,3.013,3.013,0,0,0-2.3.952,3.688,3.688,0,0,0-.9,2.632,3.781,3.781,0,0,0,.9,2.674A2.992,2.992,0,0,0,33.208-3.976Z" transform="translate(42.551 24)"/><path class="c" d="M-34.364-13.486h-5.28V-15.4h12.738v1.914h-5.28V0h-2.178ZM-24.178-9.7a3.6,3.6,0,0,1,1.628-1.54,5.909,5.909,0,0,1,2.618-.528v2.046a4.123,4.123,0,0,0-.484-.022,3.554,3.554,0,0,0-2.695,1.023,4.05,4.05,0,0,0-.979,2.915V0H-26.2V-11.66h2.024Zm9.966-2.068A5.274,5.274,0,0,1-10.5-10.582,4.587,4.587,0,0,1-9.218-7.04V0h-2V-1.54A3.338,3.338,0,0,1-12.727-.3a5.752,5.752,0,0,1-2.321.429,4.857,4.857,0,0,1-3.135-.946A3.035,3.035,0,0,1-19.36-3.3a3.062,3.062,0,0,1,1.122-2.475,5.529,5.529,0,0,1,3.564-.935h3.344v-.418a2.693,2.693,0,0,0-.792-2.09,3.341,3.341,0,0,0-2.332-.726,6.174,6.174,0,0,0-2.024.341,5.214,5.214,0,0,0-1.672.913l-.88-1.584a6.386,6.386,0,0,1,2.156-1.111A9.021,9.021,0,0,1-14.212-11.77ZM-14.7-1.5a3.923,3.923,0,0,0,2.09-.539A3.084,3.084,0,0,0-11.33-3.564V-5.192h-3.256q-2.684,0-2.684,1.8A1.632,1.632,0,0,0-16.588-2,3.118,3.118,0,0,0-14.7-1.5ZM4.664-16.324V0H2.64V-1.848A4.573,4.573,0,0,1,.858-.374,5.522,5.522,0,0,1-1.518.132,6.129,6.129,0,0,1-4.554-.616a5.36,5.36,0,0,1-2.1-2.1A6.254,6.254,0,0,1-7.414-5.83a6.192,6.192,0,0,1,.759-3.1,5.38,5.38,0,0,1,2.1-2.09,6.129,6.129,0,0,1,3.036-.748,5.586,5.586,0,0,1,2.31.473,4.484,4.484,0,0,1,1.76,1.4v-6.424ZM-1.342-1.716a3.954,3.954,0,0,0,2-.517A3.627,3.627,0,0,0,2.068-3.685,4.435,4.435,0,0,0,2.574-5.83a4.435,4.435,0,0,0-.506-2.145A3.553,3.553,0,0,0,.66-9.416a4.021,4.021,0,0,0-2-.506,4,4,0,0,0-2.013.506A3.648,3.648,0,0,0-4.763-7.975,4.359,4.359,0,0,0-5.28-5.83a4.359,4.359,0,0,0,.517,2.145A3.725,3.725,0,0,0-3.355-2.233,3.937,3.937,0,0,0-1.342-1.716Zm8.91-9.944H9.68V0H7.568ZM8.624-13.9A1.408,1.408,0,0,1,7.6-14.3a1.3,1.3,0,0,1-.407-.968,1.335,1.335,0,0,1,.407-.979,1.387,1.387,0,0,1,1.023-.407,1.43,1.43,0,0,1,1.023.385,1.264,1.264,0,0,1,.407.957,1.361,1.361,0,0,1-.407,1A1.387,1.387,0,0,1,8.624-13.9ZM18.832-11.77a4.818,4.818,0,0,1,3.531,1.287A5.062,5.062,0,0,1,23.672-6.71V0H21.56V-6.468a3.579,3.579,0,0,0-.814-2.552,3.061,3.061,0,0,0-2.332-.858,3.634,3.634,0,0,0-2.706,1,3.911,3.911,0,0,0-.99,2.871V0H12.606V-11.66H14.63V-9.9a4.105,4.105,0,0,1,1.727-1.386A6.035,6.035,0,0,1,18.832-11.77Zm18.876.11V-1.584A6.022,6.022,0,0,1,36.19,2.937,6.3,6.3,0,0,1,31.658,4.4a10.841,10.841,0,0,1-3.146-.451,6.228,6.228,0,0,1-2.42-1.287L27.1,1.034a5.971,5.971,0,0,0,2.013,1.111,7.648,7.648,0,0,0,2.475.407,4.152,4.152,0,0,0,3.025-.968A3.982,3.982,0,0,0,35.6-1.364v-.924A4.674,4.674,0,0,1,33.759-.935a6.12,6.12,0,0,1-2.365.451A6.373,6.373,0,0,1,28.369-1.2a5.319,5.319,0,0,1-2.123-2,5.609,5.609,0,0,1-.77-2.937,5.609,5.609,0,0,1,.77-2.937,5.243,5.243,0,0,1,2.123-1.991,6.454,6.454,0,0,1,3.025-.7,6.178,6.178,0,0,1,2.453.484,4.553,4.553,0,0,1,1.859,1.43v-1.8ZM31.636-2.332a4.323,4.323,0,0,0,2.057-.484,3.58,3.58,0,0,0,1.43-1.353,3.777,3.777,0,0,0,.517-1.969,3.569,3.569,0,0,0-1.122-2.739,4.06,4.06,0,0,0-2.882-1.045,4.091,4.091,0,0,0-2.9,1.045A3.569,3.569,0,0,0,27.61-6.138a3.777,3.777,0,0,0,.517,1.969,3.58,3.58,0,0,0,1.43,1.353A4.37,4.37,0,0,0,31.636-2.332Z" transform="translate(42.551 50.286)"/></g><g transform="translate(268.387 66.213)"><circle class="d" cx="57.852" cy="57.852" r="57.852" transform="translate(115.704 0) rotate(90)"/><g transform="translate(27.993 27.993)"><path class="e" d="M48.7,22.158v-1.88a2.819,2.819,0,1,0,0-5.639h-1.88a.94.94,0,1,1,0-1.88h2.819v.94h1.88V10.88H48.7V9h-1.88v1.88a2.819,2.819,0,0,0,0,5.639H48.7a.94.94,0,1,1,0,1.88H45.88v-.94H44v2.819h2.819v1.88Z" transform="translate(-3.587 -1.481)"/><path class="e" d="M57.676,15.338A10.338,10.338,0,1,0,47.338,25.676,10.35,10.35,0,0,0,57.676,15.338Zm-18.8,0A8.458,8.458,0,1,1,47.338,23.8,8.468,8.468,0,0,1,38.88,15.338Z" transform="translate(-3.166 -1.241)"/><path class="e" d="M59.269,15.1A14.1,14.1,0,1,0,40.1,28.236l-1.9,1.9H30.648l-6.579,7.519H12.807L1.25,50.173l1.381,1.275,11-11.915H24.923L31.5,32.014h7.481l3.157-3.157a14.032,14.032,0,0,0,2.663.319l-4.719,4.718H31.544l-5.639,7.519H14.671L1,57.036v2.233H55.51V24.65A14.03,14.03,0,0,0,59.269,15.1Zm-26.315,0A12.218,12.218,0,1,1,45.172,27.315,12.232,12.232,0,0,1,32.954,15.1ZM47.991,28.911V57.39H44.232V32.4l3.444-3.444C47.781,28.94,47.888,28.932,47.991,28.911Zm-7.13,6.863,1.491-1.491V57.39H38.593V35.774ZM14.158,57.39H10.4V49.15l3.759-4.3Zm1.88-14.1H19.8v14.1H16.037Zm5.639,0h3.759v14.1H21.676Zm5.639-.627,3.759-5.012V57.39H27.315Zm5.639-6.892h3.759V57.39H32.954ZM8.519,51.3V57.39H3.189ZM49.871,57.39V28.372a14.07,14.07,0,0,0,3.759-2.023V57.39Z" transform="translate(-1 -1)"/><path class="e" d="M6.88,36.8h1.88V33.037h1.88V21.759H8.759V18H6.88v3.759H5V33.037H6.88Zm0-13.158h1.88v7.519H6.88Z" transform="translate(-1.241 -2.023)"/><path class="e" d="M14.88,31.917h1.88V28.158h1.88v-9.4h-1.88V15H14.88v3.759H13v9.4h1.88Zm0-11.278h1.88v5.639H14.88Z" transform="translate(-1.722 -1.842)"/><path class="e" d="M22.88,25.037h1.88V21.278h1.88V13.759h-1.88V10H22.88v3.759H21v7.519h1.88Zm0-9.4h1.88V19.4H22.88Z" transform="translate(-2.203 -1.542)"/></g></g><g transform="translate(587.507 4.628)"><circle class="d" cx="57.852" cy="57.852" r="57.852" transform="translate(115.704 65.317) rotate(90)"/><g transform="translate(26.126 95.175)"><g transform="translate(0 0)"><path class="f" d="M215.859,41.692,176.209,33.3a3.127,3.127,0,0,0-3.7,2.4l-.753,4.841,45.75,9.681.753-4.841A3.127,3.127,0,0,0,215.859,41.692Z" transform="translate(-153.59 -33.234)"/><path class="f" d="M45.595,170.987a3.157,3.157,0,0,0-3.873-2.191l-7.527,2.09L16.449,167.13,14.5,176.351,2.3,179.735a3.156,3.156,0,0,0-2.191,3.873l2.4,8.639L6.986,208.37a3.156,3.156,0,0,0,3.873,2.191l39.417-10.939a3.156,3.156,0,0,0,2.191-3.873l-1.18-4.251,4.421.935a3.126,3.126,0,0,0,3.7-2.4l2.8-13.217-15.924-3.37Zm4.552,12.585.975-4.607a1.287,1.287,0,0,1,1.52-.989l4.607.975a1.287,1.287,0,0,1,.99,1.52l-.975,4.607a1.286,1.286,0,0,1-1.52.989l-4.607-.975A1.287,1.287,0,0,1,50.147,183.572ZM4.64,182.206,40,172.9h.9a.6.6,0,0,1,.565.425l.325,1.171,1.019,3.671-37.236,9.6-1.344-4.842A.59.59,0,0,1,4.64,182.206Zm42.054,14.228a.592.592,0,0,1-.4.716l-32.718,8.8-1.748.485a.576.576,0,0,1-.15.021.6.6,0,0,1-.565-.426l-.4-1.43L7.1,193.241l35.586-9.6s1.484,4.839,2.486,8.037S46.694,196.434,46.694,196.434Z" transform="translate(0 -152.966)"/><path class="g" d="M96.179,445.541a1.287,1.287,0,0,0-1.579-.893L90,445.926A1.286,1.286,0,0,0,89.1,447.5l1.277,4.6A1.286,1.286,0,0,0,91.96,453l4.6-1.277a1.286,1.286,0,0,0,.893-1.579Z" transform="translate(-77.986 -402.734)"/></g></g><g transform="translate(13.063)"><path class="c" d="M-33.012-7.112-35.084-4.9V0h-5.488V-19.6h5.488v8.148L-27.5-19.6h6.1L-29.4-10.92-20.972,0h-6.44Zm16.632-6.244a4.951,4.951,0,0,1,2.114-1.554,8.02,8.02,0,0,1,2.982-.518v4.788a10.876,10.876,0,0,0-1.2-.084,3.71,3.71,0,0,0-2.674.924,3.746,3.746,0,0,0-.966,2.828V0h-5.32V-15.176h5.068Zm5.88-1.82h5.32V0H-10.5Zm2.66-1.68a3.368,3.368,0,0,1-2.352-.812,2.611,2.611,0,0,1-.9-2.016,2.611,2.611,0,0,1,.9-2.016,3.368,3.368,0,0,1,2.352-.812,3.482,3.482,0,0,1,2.352.77,2.485,2.485,0,0,1,.9,1.974,2.715,2.715,0,0,1-.9,2.086A3.333,3.333,0,0,1-7.84-16.856ZM6.412-15.428a7.467,7.467,0,0,1,3.766.966,7.039,7.039,0,0,1,2.688,2.744,8.323,8.323,0,0,1,.994,4.13,8.323,8.323,0,0,1-.994,4.13A7.039,7.039,0,0,1,10.178-.714,7.467,7.467,0,0,1,6.412.252a5.657,5.657,0,0,1-4.228-1.6V5.432h-5.32V-15.176H1.932v1.512A5.525,5.525,0,0,1,6.412-15.428ZM5.292-3.976a2.992,2.992,0,0,0,2.3-.966,3.739,3.739,0,0,0,.9-2.646,3.739,3.739,0,0,0-.9-2.646,2.992,2.992,0,0,0-2.3-.966,2.992,2.992,0,0,0-2.3.966,3.739,3.739,0,0,0-.9,2.646A3.739,3.739,0,0,0,3-4.942,2.992,2.992,0,0,0,5.292-3.976ZM25.4-.616a5.36,5.36,0,0,1-1.638.644A9.091,9.091,0,0,1,21.7.252,6.538,6.538,0,0,1,17.136-1.2a5.584,5.584,0,0,1-1.6-4.34v-5.1H13.328v-3.976H15.54v-3.948h5.32v3.948h3.472v3.976H20.86V-5.6a1.787,1.787,0,0,0,.434,1.274,1.518,1.518,0,0,0,1.162.462A2.818,2.818,0,0,0,24.08-4.34Zm7.812.868a9.47,9.47,0,0,1-4.4-1.008,7.608,7.608,0,0,1-3.066-2.8,7.572,7.572,0,0,1-1.106-4.06,7.521,7.521,0,0,1,1.106-4.032A7.532,7.532,0,0,1,28.8-14.434a9.556,9.556,0,0,1,4.41-.994,9.642,9.642,0,0,1,4.424.994,7.446,7.446,0,0,1,3.052,2.772,7.574,7.574,0,0,1,1.092,4.046,7.646,7.646,0,0,1-1.092,4.06,7.51,7.51,0,0,1-3.052,2.8A9.532,9.532,0,0,1,33.208.252Zm0-4.228a2.992,2.992,0,0,0,2.3-.966,3.781,3.781,0,0,0,.9-2.674,3.688,3.688,0,0,0-.9-2.632,3.013,3.013,0,0,0-2.3-.952,3.013,3.013,0,0,0-2.3.952,3.688,3.688,0,0,0-.9,2.632,3.781,3.781,0,0,0,.9,2.674A2.992,2.992,0,0,0,33.208-3.976Z" transform="translate(44.473 26)"/><path class="c" d="M-15.488.176A8.5,8.5,0,0,1-19.657-.847a7.527,7.527,0,0,1-2.915-2.816A7.8,7.8,0,0,1-23.628-7.7a7.8,7.8,0,0,1,1.056-4.037,7.507,7.507,0,0,1,2.926-2.816,8.564,8.564,0,0,1,4.18-1.023,8.724,8.724,0,0,1,3.3.605,6.754,6.754,0,0,1,2.552,1.793l-1.43,1.386a5.738,5.738,0,0,0-4.334-1.826,6.278,6.278,0,0,0-3.1.77,5.584,5.584,0,0,0-2.167,2.123A5.941,5.941,0,0,0-21.428-7.7a5.941,5.941,0,0,0,.781,3.025A5.584,5.584,0,0,0-18.48-2.552a6.278,6.278,0,0,0,3.1.77A5.749,5.749,0,0,0-11.044-3.63l1.43,1.386a6.844,6.844,0,0,1-2.563,1.8A8.67,8.67,0,0,1-15.488.176Zm11.7-11.946A5.274,5.274,0,0,1-.077-10.582,4.587,4.587,0,0,1,1.21-7.04V0h-2V-1.54A3.338,3.338,0,0,1-2.3-.3,5.752,5.752,0,0,1-4.62.132,4.857,4.857,0,0,1-7.755-.814,3.035,3.035,0,0,1-8.932-3.3,3.062,3.062,0,0,1-7.81-5.775,5.529,5.529,0,0,1-4.246-6.71H-.9v-.418a2.693,2.693,0,0,0-.792-2.09,3.341,3.341,0,0,0-2.332-.726A6.174,6.174,0,0,0-6.05-9.6a5.214,5.214,0,0,0-1.672.913l-.88-1.584a6.386,6.386,0,0,1,2.156-1.111A9.021,9.021,0,0,1-3.784-11.77ZM-4.268-1.5a3.923,3.923,0,0,0,2.09-.539A3.084,3.084,0,0,0-.9-3.564V-5.192H-4.158q-2.684,0-2.684,1.8A1.632,1.632,0,0,0-6.16-2,3.118,3.118,0,0,0-4.268-1.5ZM6.05-9.7a3.6,3.6,0,0,1,1.628-1.54A5.909,5.909,0,0,1,10.3-11.77v2.046a4.123,4.123,0,0,0-.484-.022,3.554,3.554,0,0,0-2.7,1.023,4.05,4.05,0,0,0-.979,2.915V0H4.026V-11.66H6.05Zm16.632-6.622V0H20.658V-1.848A4.573,4.573,0,0,1,18.876-.374,5.522,5.522,0,0,1,16.5.132a6.129,6.129,0,0,1-3.036-.748,5.36,5.36,0,0,1-2.1-2.1A6.254,6.254,0,0,1,10.6-5.83a6.192,6.192,0,0,1,.759-3.1,5.38,5.38,0,0,1,2.1-2.09A6.129,6.129,0,0,1,16.5-11.77a5.586,5.586,0,0,1,2.31.473,4.484,4.484,0,0,1,1.76,1.4v-6.424ZM16.676-1.716a3.954,3.954,0,0,0,2-.517,3.627,3.627,0,0,0,1.408-1.452,4.435,4.435,0,0,0,.506-2.145,4.435,4.435,0,0,0-.506-2.145,3.553,3.553,0,0,0-1.408-1.441,4.021,4.021,0,0,0-2-.506,4,4,0,0,0-2.013.506,3.648,3.648,0,0,0-1.408,1.441,4.359,4.359,0,0,0-.517,2.145,4.359,4.359,0,0,0,.517,2.145,3.725,3.725,0,0,0,1.408,1.452A3.937,3.937,0,0,0,16.676-1.716Z" transform="translate(44.475 51.859)"/></g></g><path class="c" d="M-16.268-3.808h-8.288L-26.1,0h-5.656L-23.1-19.6h5.46L-8.96,0h-5.768ZM-17.892-7.9l-2.52-6.272L-22.932-7.9ZM-5.6-15.2h-6.02v-4.4H5.936v4.4H-.056V0H-5.6ZM24.3,0l-.056-10.388-5.04,8.456H16.744l-5.012-8.176V0H6.608V-19.6h4.564L18.06-8.288,24.78-19.6h4.564L29.4,0Z" transform="translate(645.043 307.533)"/><path class="c" d="M-24.068-6.842l-2.816,2.86V0h-2.2V-15.4h2.2v8.6l8.36-8.6h2.508l-6.578,6.93,7,8.47h-2.574Zm11.2-2.86a3.6,3.6,0,0,1,1.628-1.54,5.909,5.909,0,0,1,2.618-.528v2.046a4.123,4.123,0,0,0-.484-.022A3.554,3.554,0,0,0-11.8-8.723a4.05,4.05,0,0,0-.979,2.915V0h-2.112V-11.66h2.024Zm5.742-1.958h2.112V0H-7.128ZM-6.072-13.9A1.408,1.408,0,0,1-7.1-14.3a1.3,1.3,0,0,1-.407-.968,1.335,1.335,0,0,1,.407-.979,1.387,1.387,0,0,1,1.023-.407,1.43,1.43,0,0,1,1.023.385,1.264,1.264,0,0,1,.407.957,1.361,1.361,0,0,1-.407,1A1.387,1.387,0,0,1-6.072-13.9ZM4.092-11.77a6.129,6.129,0,0,1,3.036.748,5.38,5.38,0,0,1,2.1,2.09,6.192,6.192,0,0,1,.759,3.1,6.254,6.254,0,0,1-.759,3.113,5.36,5.36,0,0,1-2.1,2.1A6.129,6.129,0,0,1,4.092.132a5.4,5.4,0,0,1-2.3-.484A4.782,4.782,0,0,1,.022-1.76V4.268H-2.09V-11.66H-.066v1.848a4.484,4.484,0,0,1,1.782-1.463A5.626,5.626,0,0,1,4.092-11.77ZM3.916-1.716a3.937,3.937,0,0,0,2.013-.517A3.725,3.725,0,0,0,7.337-3.685,4.359,4.359,0,0,0,7.854-5.83a4.359,4.359,0,0,0-.517-2.145A3.648,3.648,0,0,0,5.929-9.416a4,4,0,0,0-2.013-.506,3.894,3.894,0,0,0-1.991.517A3.746,3.746,0,0,0,.517-7.964,4.3,4.3,0,0,0,0-5.83,4.435,4.435,0,0,0,.506-3.685,3.627,3.627,0,0,0,1.914-2.233,3.954,3.954,0,0,0,3.916-1.716ZM18.37-.682a3.151,3.151,0,0,1-1.144.6,4.778,4.778,0,0,1-1.408.209A3.739,3.739,0,0,1,13.09-.814a3.613,3.613,0,0,1-.968-2.706v-6.4h-1.98V-11.66h1.98v-2.552h2.112v2.552h3.344v1.738H14.234v6.314a2.048,2.048,0,0,0,.473,1.452,1.762,1.762,0,0,0,1.353.506,2.545,2.545,0,0,0,1.65-.55Zm6.05.814A6.323,6.323,0,0,1,21.3-.638a5.584,5.584,0,0,1-2.167-2.123,6.027,6.027,0,0,1-.781-3.069A6.027,6.027,0,0,1,19.129-8.9,5.507,5.507,0,0,1,21.3-11.011a6.4,6.4,0,0,1,3.124-.759,6.333,6.333,0,0,1,3.113.759A5.527,5.527,0,0,1,29.689-8.9,6.027,6.027,0,0,1,30.47-5.83a6.027,6.027,0,0,1-.781,3.069A5.6,5.6,0,0,1,27.533-.638,6.261,6.261,0,0,1,24.42.132Zm0-1.848a3.937,3.937,0,0,0,2.013-.517,3.649,3.649,0,0,0,1.4-1.452,4.435,4.435,0,0,0,.506-2.145,4.435,4.435,0,0,0-.506-2.145,3.574,3.574,0,0,0-1.4-1.441,4,4,0,0,0-2.013-.506,4,4,0,0,0-2.013.506A3.648,3.648,0,0,0,21-7.975a4.359,4.359,0,0,0-.517,2.145A4.359,4.359,0,0,0,21-3.685a3.725,3.725,0,0,0,1.408,1.452A3.937,3.937,0,0,0,24.42-1.716Z" transform="translate(645.044 330.66)"/><circle class="d" cx="57.852" cy="57.852" r="57.852" transform="translate(604.302 250.966) rotate(90)"/><g transform="translate(522.191 277.092)"><path class="e" d="M190.372,161.829a.947.947,0,0,0-.341-.012,2.263,2.263,0,0,1-2-2.244,1,1,0,1,0-1.991,0,4.259,4.259,0,0,0,3.131,4.1v1a1,1,0,0,0,1.991,0v-.935a4.251,4.251,0,0,0-.871-8.411,2.26,2.26,0,1,1,2.26-2.26,1,1,0,0,0,1.991,0,4.259,4.259,0,0,0-3.38-4.161V148a1,1,0,0,0-1.991,0v.967a4.251,4.251,0,0,0,1.12,8.351,2.259,2.259,0,0,1,.083,4.516Zm0,0" transform="translate(-162.934 -128.708)"/><path class="e" d="M104.2,120.927a14.435,14.435,0,1,0,14.435-14.435A14.435,14.435,0,0,0,104.2,120.927Zm14.435-12.444a12.444,12.444,0,1,1-12.444,12.444A12.444,12.444,0,0,1,118.63,108.483Zm0,0" transform="translate(-91.275 -93.241)"/><path class="e" d="M47.058,330.323l-7.8,3.684a6.351,6.351,0,0,0-5.415-3.341l-7.2-.2a7.6,7.6,0,0,1-3.272-.845l-.732-.38a12.92,12.92,0,0,0-11.967.013l.046-1.659a1,1,0,0,0-.968-1.023l-7.894-.217a1,1,0,0,0-1.022.968L.361,344.647a1,1,0,0,0,.968,1.023l7.894.217h.027a1,1,0,0,0,1-.968l.023-.829,2.051-1.1a3.517,3.517,0,0,1,2.625-.287l12.246,3.437.065.016a13.1,13.1,0,0,0,2.691.278,13.282,13.282,0,0,0,5.548-1.211.935.935,0,0,0,.123-.068l17.755-11.485a1,1,0,0,0,.326-1.326A5.029,5.029,0,0,0,47.058,330.323ZM2.378,343.707,2.8,328.374l5.9.162L8.281,343.87Zm32.219-.26a11.287,11.287,0,0,1-6.9.77l-12.213-3.428a5.5,5.5,0,0,0-4.1.449l-1.048.561.28-10.194a10.942,10.942,0,0,1,11.116-.593l.732.38a9.615,9.615,0,0,0,4.133,1.067l7.2.2a4.366,4.366,0,0,1,4.15,3.479l-10.723-.3a1,1,0,0,0-.055,1.99L39,338.155h.028a1,1,0,0,0,.994-.968,6.318,6.318,0,0,0-.1-1.292l8-3.779.023-.011a3.042,3.042,0,0,1,3.439.482Zm0,0" transform="translate(-0.36 -285.747)"/><path class="e" d="M214.194,10.452V1A1,1,0,1,0,212.2,1v9.457a1,1,0,1,0,1.991,0Zm0,0" transform="translate(-185.843)"/><path class="e" d="M274.194,45.475V41a1,1,0,0,0-1.991,0v4.48a1,1,0,0,0,1.991,0Zm0,0" transform="translate(-238.377 -35.023)"/><path class="e" d="M154.194,45.475V41a1,1,0,0,0-1.991,0v4.48a1,1,0,1,0,1.991,0Zm0,0" transform="translate(-133.309 -35.023)"/></g><path class="c" d="M11.423,19.888,9.351,22.1V27H3.863V7.4H9.351v8.148L16.939,7.4h6.1l-8.008,8.68L23.463,27h-6.44Zm16.632-6.244a4.951,4.951,0,0,1,2.114-1.554,8.02,8.02,0,0,1,2.982-.518V16.36a10.876,10.876,0,0,0-1.2-.084,3.71,3.71,0,0,0-2.674.924,3.746,3.746,0,0,0-.966,2.828V27h-5.32V11.824h5.068Zm5.88-1.82h5.32V27h-5.32Zm2.66-1.68a3.368,3.368,0,0,1-2.352-.812,2.611,2.611,0,0,1-.9-2.016,2.611,2.611,0,0,1,.9-2.016,3.368,3.368,0,0,1,2.352-.812,3.482,3.482,0,0,1,2.352.77,2.485,2.485,0,0,1,.9,1.974,2.715,2.715,0,0,1-.9,2.086A3.333,3.333,0,0,1,36.595,10.144Zm14.252,1.428a7.467,7.467,0,0,1,3.766.966A7.039,7.039,0,0,1,57.3,15.282a8.323,8.323,0,0,1,.994,4.13,8.323,8.323,0,0,1-.994,4.13,7.039,7.039,0,0,1-2.688,2.744,7.467,7.467,0,0,1-3.766.966,5.657,5.657,0,0,1-4.228-1.6v6.776H41.3V11.824h5.068v1.512A5.525,5.525,0,0,1,50.847,11.572Zm-1.12,11.452a2.992,2.992,0,0,0,2.3-.966,3.739,3.739,0,0,0,.9-2.646,3.739,3.739,0,0,0-.9-2.646,3.212,3.212,0,0,0-4.592,0,3.739,3.739,0,0,0-.9,2.646,3.739,3.739,0,0,0,.9,2.646A2.992,2.992,0,0,0,49.727,23.024Zm20.1,3.36a5.36,5.36,0,0,1-1.638.644,9.091,9.091,0,0,1-2.058.224A6.538,6.538,0,0,1,61.571,25.8a5.584,5.584,0,0,1-1.6-4.34v-5.1H57.763V12.384h2.212V8.436h5.32v3.948h3.472V16.36H65.295V21.4a1.787,1.787,0,0,0,.434,1.274,1.518,1.518,0,0,0,1.162.462,2.818,2.818,0,0,0,1.624-.476Zm7.812.868a9.47,9.47,0,0,1-4.4-1.008,7.5,7.5,0,0,1-4.172-6.86,7.479,7.479,0,0,1,4.158-6.818,10.311,10.311,0,0,1,8.834,0,7.446,7.446,0,0,1,3.052,2.772,7.574,7.574,0,0,1,1.092,4.046,7.646,7.646,0,0,1-1.092,4.06,7.51,7.51,0,0,1-3.052,2.8A9.532,9.532,0,0,1,77.643,27.252Zm0-4.228a2.992,2.992,0,0,0,2.3-.966,3.781,3.781,0,0,0,.9-2.674,3.688,3.688,0,0,0-.9-2.632,3.245,3.245,0,0,0-4.592,0,3.688,3.688,0,0,0-.9,2.632,3.781,3.781,0,0,0,.9,2.674A2.992,2.992,0,0,0,77.643,23.024Z" transform="translate(210.824 475.503)"/><path class="c" d="M15,17.15H6.812L5.118,21H2.852L9.826,5.6H12L19,21H16.69Zm-.77-1.76L10.9,7.844,7.582,15.39ZM26.062,9.23a6.129,6.129,0,0,1,3.036.748,5.38,5.38,0,0,1,2.1,2.09,6.192,6.192,0,0,1,.759,3.1,6.254,6.254,0,0,1-.759,3.113,5.36,5.36,0,0,1-2.1,2.1,6.129,6.129,0,0,1-3.036.748,5.4,5.4,0,0,1-2.3-.484,4.782,4.782,0,0,1-1.771-1.408v6.028H19.88V9.34H21.9v1.848a4.484,4.484,0,0,1,1.782-1.463A5.626,5.626,0,0,1,26.062,9.23Zm-.176,10.054a3.937,3.937,0,0,0,2.013-.517,3.725,3.725,0,0,0,1.408-1.452,4.359,4.359,0,0,0,.517-2.145,4.359,4.359,0,0,0-.517-2.145A3.648,3.648,0,0,0,27.9,11.584a4,4,0,0,0-2.013-.506,3.894,3.894,0,0,0-1.991.517,3.746,3.746,0,0,0-1.408,1.441,4.3,4.3,0,0,0-.517,2.134,4.435,4.435,0,0,0,.506,2.145,3.627,3.627,0,0,0,1.408,1.452A3.954,3.954,0,0,0,25.886,19.284ZM39.966,9.23A6.129,6.129,0,0,1,43,9.978a5.38,5.38,0,0,1,2.1,2.09,6.192,6.192,0,0,1,.759,3.1,6.254,6.254,0,0,1-.759,3.113,5.36,5.36,0,0,1-2.1,2.1,6.129,6.129,0,0,1-3.036.748,5.4,5.4,0,0,1-2.3-.484A4.782,4.782,0,0,1,35.9,19.24v6.028H33.784V9.34h2.024v1.848A4.484,4.484,0,0,1,37.59,9.725,5.626,5.626,0,0,1,39.966,9.23ZM39.79,19.284a3.937,3.937,0,0,0,2.013-.517,3.725,3.725,0,0,0,1.408-1.452,4.359,4.359,0,0,0,.517-2.145,4.359,4.359,0,0,0-.517-2.145A3.648,3.648,0,0,0,41.8,11.584a4,4,0,0,0-2.013-.506,3.894,3.894,0,0,0-1.991.517,3.746,3.746,0,0,0-1.408,1.441,4.3,4.3,0,0,0-.517,2.134,4.435,4.435,0,0,0,.506,2.145,3.627,3.627,0,0,0,1.408,1.452A3.954,3.954,0,0,0,39.79,19.284Zm11.242,1.848a9.771,9.771,0,0,1-2.75-.385,6.039,6.039,0,0,1-2.068-.979l.88-1.672a6.316,6.316,0,0,0,1.87.88,7.7,7.7,0,0,0,2.222.33q2.772,0,2.772-1.584a1.026,1.026,0,0,0-.374-.836,2.368,2.368,0,0,0-.935-.451q-.561-.143-1.6-.319a15.631,15.631,0,0,1-2.3-.506,3.543,3.543,0,0,1-1.529-.968,2.694,2.694,0,0,1-.638-1.914,2.989,2.989,0,0,1,1.32-2.541A5.912,5.912,0,0,1,51.45,9.23a9.758,9.758,0,0,1,2.332.286,6.271,6.271,0,0,1,1.914.77l-.9,1.672a6.065,6.065,0,0,0-3.366-.924,3.891,3.891,0,0,0-2.046.44,1.328,1.328,0,0,0-.7,1.166,1.112,1.112,0,0,0,.4.9,2.5,2.5,0,0,0,.979.484q.583.154,1.639.352a17.788,17.788,0,0,1,2.277.517,3.4,3.4,0,0,1,1.485.935,2.6,2.6,0,0,1,.616,1.848A2.914,2.914,0,0,1,54.717,20.2,6.39,6.39,0,0,1,51.032,21.132Z" transform="translate(225.824 505.362)"/><g transform="translate(197.472 349.874)"><circle class="d" cx="57.852" cy="57.852" r="57.852" transform="translate(115.704 0) rotate(90)"/><g transform="translate(33.591 33.591)"><path class="e" d="M200,448h9.838v1.64H200Zm0,0" transform="translate(-179.505 -402.091)"/><path class="e" d="M92.1,193.64V192h-1.64v1.64H88v8.2h2.459v1.64H92.1v-1.64a2.458,2.458,0,0,0,1.831-4.1,2.458,2.458,0,0,0-1.831-4.1Zm0,6.558H89.64v-1.64H92.1a.82.82,0,1,1,0,1.64Zm0-3.279H89.64v-1.64H92.1a.82.82,0,0,1,0,1.64Zm0,0" transform="translate(-78.982 -172.325)"/><path class="e" d="M39.351,42.63H11.477V36.05l-.7-.1a10.643,10.643,0,0,1,0-21.071l.7-.1v-7.4H39.351v3.279h1.64V4.1a4.1,4.1,0,0,0-4.1-4.1H13.937a4.1,4.1,0,0,0-4.1,4.1v9.279a12.282,12.282,0,0,0,0,24.073v9.279a4.1,4.1,0,0,0,4.1,4.1H36.892a4.1,4.1,0,0,0,4.1-4.1V32.792h-1.64ZM13.937,1.64H36.892A2.463,2.463,0,0,1,39.351,4.1v1.64H11.477V4.1A2.463,2.463,0,0,1,13.937,1.64ZM36.892,49.189H13.937a2.463,2.463,0,0,1-2.459-2.459V44.27H39.351v2.459A2.463,2.463,0,0,1,36.892,49.189Zm0,0"/><path class="e" d="M34.036,192.313A9.017,9.017,0,0,0,46.725,205l-1.039-1.269a7.376,7.376,0,0,1-10.38-10.379Zm0,0" transform="translate(-28.721 -172.605)"/><path class="e" d="M77,174.725a9.017,9.017,0,0,0-12.688-12.687l1.039,1.269a7.376,7.376,0,0,1,10.38,10.379Zm0,0" transform="translate(-57.722 -143.604)"/><path class="e" d="M138.969,140.686a12.326,12.326,0,0,0-11.419-12.253l-.116,1.634a10.645,10.645,0,0,1,0,21.237l.116,1.634A12.327,12.327,0,0,0,138.969,140.686Zm0,0" transform="translate(-114.375 -115.272)"/><path class="e" d="M259.279,195.676v-4.919h1.64v-9.838h-1.64V176h-1.64v4.919H256v9.838h1.64v4.919Zm-1.64-13.117h1.64v6.558h-1.64Zm0,0" transform="translate(-229.766 -157.964)"/><path class="e" d="M323.279,163.676v-12.3h1.64v-4.919h-1.64V144h-1.64v2.459H320v4.919h1.64v12.3ZM321.64,148.1h1.64v1.64h-1.64Zm0,0" transform="translate(-287.208 -129.243)"/><path class="e" d="M387.279,120h-1.64v11.477H384V136.4h1.64v2.459h1.64V136.4h1.64v-4.919h-1.64Zm0,14.757h-1.64v-1.64h1.64Zm0,0" transform="translate(-344.649 -107.703)"/><path class="e" d="M452.919,82.459h-1.64V80h-1.64v2.459H448V92.3h1.64v7.378h1.64V92.3h1.64Zm-1.64,8.2h-1.64V84.1h1.64Zm0,0" transform="translate(-402.091 -71.802)"/></g></g></g></g></svg>