<svg xmlns="http://www.w3.org/2000/svg" width="123.944" height="141.838" viewBox="0 0 123.944 141.838"><defs><style>.a{fill:#4c2f6e;}</style></defs><g transform="translate(-3.279 -0.001)"><path class="a" d="M90.781,312.391H69.558c-.5-5.676-2.285-7.037-7.618-10.37-1.629-1.018-3.655-2.285-6.157-4.032a15.286,15.286,0,0,1-4.562-5.977L39.928,265.639a2.378,2.378,0,0,1,1.018-3.338c.965-.443,2.333-.225,3.278,1.71l.028.055,7.3,13.892a18.519,18.519,0,0,0,4.084,4.955c.463.439.943.892,1.415,1.374q.049.049.1.1l10.735,9.575c.046.041.093.079.142.115a5.473,5.473,0,0,0,7.639-.5,5.386,5.386,0,0,0-.233-7.42c-1.128-1.216-1.868-2.074-2.724-3.068-.562-.652-1.2-1.391-2.03-2.33-1.629-1.85-1.88-3.771-.654-5.012,1.077-1.091,3.155-1.473,5.217.212l9.626,11.6c3.112,3.749,3.113,9.991,3.113,15.5,0,.627,0,1.242,0,1.839a2.078,2.078,0,0,0,2.077,2.062h.017a2.078,2.078,0,0,0,2.061-2.094c0-.587,0-1.191,0-1.807,0-5.9,0-13.249-4.071-18.152l-9.745-11.742a2.032,2.032,0,0,0-.245-.249c-3.94-3.383-8.519-2.6-11.006-.084-2.345,2.374-3.1,6.6.5,10.682.817.922,1.444,1.651,2,2.292.887,1.029,1.653,1.918,2.841,3.2l.034.036a1.273,1.273,0,0,1,.1,1.8c-.473.54-1.169.524-1.965-.043l-10.608-9.462c-.509-.517-1-.982-1.477-1.432a14.586,14.586,0,0,1-3.262-3.869l-7.289-13.867c-2.107-4.279-6-4.885-8.729-3.634a6.538,6.538,0,0,0-3.106,8.752L47.4,293.651a19.275,19.275,0,0,0,5.9,7.669l.068.05c2.606,1.822,4.694,3.127,6.372,4.175,4.526,2.829,5.409,3.382,5.693,7.184a4.47,4.47,0,0,0-2.767,4.126v7a4.473,4.473,0,0,0,4.465,4.472H90.781a4.474,4.474,0,0,0,4.465-4.472v-7a4.47,4.47,0,0,0-4.465-4.464Zm.31,11.465a.321.321,0,0,1-.31.316H67.129a.321.321,0,0,1-.31-.316v-7a.317.317,0,0,1,.31-.308H90.781a.317.317,0,0,1,.31.308Z" transform="translate(-32.205 -186.49)"/><path class="a" d="M323.194,258.521c-2.731-1.25-6.622-.643-8.724,3.636l-7.289,13.866a14.579,14.579,0,0,1-3.261,3.868c-.476.45-.968.915-1.477,1.432l-10.608,9.462c-.8.567-1.492.583-1.966.042a1.275,1.275,0,0,1,.1-1.8l.032-.034c1.225-1.32,2.015-2.236,2.929-3.3.54-.626,1.136-1.318,1.912-2.2,3.6-4.08,2.844-8.3.5-10.678-2.486-2.519-7.065-3.3-11.005.083a2.054,2.054,0,0,0-.245.249l-9.745,11.741c-4.073,4.905-4.074,12.25-4.074,18.151,0,.439,0,.873,0,1.3a2.078,2.078,0,0,0,2.069,2.086h.008a2.078,2.078,0,0,0,2.078-2.07c0-.431,0-.87,0-1.315,0-5.506,0-11.746,3.116-15.5l9.626-11.6c2.062-1.685,4.139-1.3,5.215-.212,1.225,1.241.972,3.162-.659,5.011-.788.894-1.394,1.6-1.943,2.232-.921,1.068-1.649,1.912-2.814,3.168a5.388,5.388,0,0,0-.224,7.42,5.475,5.475,0,0,0,7.638.5c.049-.036.1-.075.142-.116l10.735-9.575c.034-.031.068-.063.1-.1.473-.482.952-.935,1.415-1.374a18.516,18.516,0,0,0,4.084-4.954l7.3-13.892c.01-.018.019-.037.029-.056.942-1.933,2.31-2.149,3.274-1.708a2.378,2.378,0,0,1,1.021,3.339l-11.3,26.373a15.129,15.129,0,0,1-4.56,5.974c-2.5,1.749-4.527,3.016-6.156,4.035-5.329,3.333-7.116,4.694-7.612,10.369H271.634a4.47,4.47,0,0,0-4.465,4.464v7a4.473,4.473,0,0,0,4.465,4.471h23.653a4.473,4.473,0,0,0,4.465-4.471v-7a4.469,4.469,0,0,0-2.767-4.126c.284-3.8,1.166-4.355,5.689-7.184,1.677-1.049,3.764-2.354,6.369-4.176l.063-.046a19.119,19.119,0,0,0,5.9-7.674l11.3-26.372A6.538,6.538,0,0,0,323.194,258.521Zm-27.6,65.333a.321.321,0,0,1-.309.316H271.633a.321.321,0,0,1-.31-.316v-7a.317.317,0,0,1,.31-.308h23.652a.317.317,0,0,1,.31.308v7Z" transform="translate(-199.707 -186.488)"/><path class="a" d="M130.9,75.842a2.078,2.078,0,1,0,0,4.155h17.284a3.448,3.448,0,0,0,3.444-3.443V72.065a14.241,14.241,0,0,0-1.038-5.622h21.631A3.452,3.452,0,0,0,175.677,63V58.51c0-9.242-6.548-11.98-12.222-13.6a2.068,2.068,0,0,0-.248-.071c-.6-.168-1.182-.324-1.748-.475-.373-.1-.744-.2-1.107-.3-.547-.15-.953-.857-1.26-1.569,5.64-3.807,9.847-10.365,9.847-16.081v-5.2c0-6.4-2.046-11.84-5.918-15.719A18.83,18.83,0,0,0,149.9,0h-.067a18.951,18.951,0,0,0-18.206,14.532,19.356,19.356,0,0,0-5.77-.977h-.069a19.347,19.347,0,0,0-5.772.978A18.959,18.959,0,0,0,101.813,0h-.067A18.83,18.83,0,0,0,88.625,5.5c-3.871,3.879-5.918,9.314-5.918,15.719v5.2c0,5.716,4.207,12.276,9.846,16.083-.3.711-.709,1.416-1.254,1.566q-.551.15-1.111.3c-.537.143-1.091.291-1.655.449a2.094,2.094,0,0,0-.36.1c-5.669,1.621-12.2,4.365-12.2,13.6V63a3.448,3.448,0,0,0,3.444,3.443h21.639a14.241,14.241,0,0,0-1.038,5.622v4.489A3.448,3.448,0,0,0,103.459,80h18.093a2.078,2.078,0,1,0,0-4.155H104.17V72.065c0-5.8,3.168-7.771,8.53-9.4l9.727,5.707a5.493,5.493,0,0,0,6.787,0l9.733-5.706c5.362,1.628,8.53,3.6,8.53,9.4v3.778H130.9Zm33.88-49.426c0,5.419-5.319,12.144-11.383,14.393a8.963,8.963,0,0,1-7.071,0,15.248,15.248,0,0,1-1.44-.626c0-.071,0-.142,0-.213v-5.2c0-5.794-1.68-10.79-4.867-14.562.175-.172.338-.338.492-.495,1.073-1.095,1.266-1.292,2.429-.992.833.215,1.546.406,2.166.572a18.577,18.577,0,0,0,4.753.915,18.532,18.532,0,0,0,4.739-.913c.622-.166,1.337-.357,2.173-.573,1.165-.3,1.358-.1,2.43.989a10.411,10.411,0,0,0,5.574,3.3Zm-7.04,20.964-6.624,3.873-.082.051c-1.1.712-1.25.712-2.348,0l-.081-.05-5.96-3.492a19.756,19.756,0,0,0,1.482-3.356c.248.1.5.206.75.3a13.087,13.087,0,0,0,9.966,0c.194-.072.386-.15.579-.229A6.911,6.911,0,0,0,157.744,47.381ZM149.869,4.156c6.635.119,13.725,4.718,14.78,14.5a7.029,7.029,0,0,1-2.474-1.851c-1.243-1.267-2.946-3-6.435-2.1-.849.219-1.575.413-2.206.582a16.591,16.591,0,0,1-3.666.773,16.593,16.593,0,0,1-3.681-.774c-.63-.168-1.354-.362-2.2-.58-3.489-.9-5.192.837-6.436,2.107-.181.185-.361.364-.543.539q-.743-.561-1.536-1.044a14.952,14.952,0,0,1,14.4-12.15ZM125.823,17.711c6.635.126,13.725,4.727,14.781,14.5a7.017,7.017,0,0,1-2.471-1.847,6.173,6.173,0,0,0-4.615-2.351,7.354,7.354,0,0,0-1.824.247c-.839.217-1.557.409-2.184.577a16.6,16.6,0,0,1-3.688.777,16.6,16.6,0,0,1-3.688-.777c-.626-.167-1.345-.36-2.189-.578-3.49-.894-5.192.84-6.434,2.106a7.013,7.013,0,0,1-2.471,1.847C112.1,22.438,119.188,17.837,125.823,17.711Zm14.916,18.861v3.4c0,5.419-5.319,12.144-11.384,14.394a8.931,8.931,0,0,1-7.065,0c-6.063-2.249-11.382-8.974-11.382-14.393v-3.4a10.4,10.4,0,0,0,5.571-3.3c1.073-1.093,1.266-1.29,2.431-.992.826.214,1.534.4,2.151.568a18.572,18.572,0,0,0,4.762.918,18.584,18.584,0,0,0,4.762-.918c.617-.165,1.325-.355,2.146-.567,1.171-.3,1.364-.1,2.437.991A10.4,10.4,0,0,0,140.739,36.571ZM101.777,4.156a14.961,14.961,0,0,1,14.4,12.15q-.792.482-1.535,1.044c-.182-.175-.361-.353-.542-.538-1.245-1.27-2.95-3.009-6.446-2.107-.839.217-1.557.409-2.184.577a16.587,16.587,0,0,1-3.687.777,16.57,16.57,0,0,1-3.666-.773c-.632-.169-1.358-.363-2.21-.583-3.486-.895-5.188.839-6.43,2.1A7.026,7.026,0,0,1,87,18.657C88.052,8.874,95.142,4.275,101.777,4.156ZM86.863,26.417v-3.4a10.393,10.393,0,0,0,5.575-3.3c1.073-1.093,1.267-1.289,2.429-.991.836.216,1.552.407,2.174.573a18.542,18.542,0,0,0,4.738.913,18.569,18.569,0,0,0,4.762-.918c.617-.165,1.325-.355,2.149-.568,1.17-.3,1.364-.1,2.44.993.153.156.316.322.49.493-3.186,3.772-4.867,8.768-4.867,14.562v5.2c0,.07,0,.142,0,.212a15.088,15.088,0,0,1-1.448.627,8.931,8.931,0,0,1-7.065,0c-6.063-2.249-11.382-8.974-11.382-14.393ZM108.994,47.76l-5.959,3.495-.08.049c-1.1.712-1.25.712-2.348,0l-.08-.049-6.619-3.881a7.048,7.048,0,0,0,2.307-2.9q.289.119.581.227a13.049,13.049,0,0,0,9.958,0c.255-.094.507-.2.758-.3a19.7,19.7,0,0,0,1.481,3.355Zm6.341,9.86q-.549.15-1.108.3c-3.268.872-7.191,1.923-10.088,4.37H80.125V58.51c0-5.8,3.168-7.77,8.532-9.4l9.731,5.705a5.484,5.484,0,0,0,6.789,0l6.154-3.61a24.566,24.566,0,0,0,5.267,4.845C116.292,56.763,115.886,57.47,115.336,57.62Zm11.738,7.19c-.027.016-.053.032-.08.049-1.106.717-1.238.717-2.352,0l-.076-.047-6.618-3.883a7.046,7.046,0,0,0,2.312-2.9c.193.08.387.158.582.23a13.05,13.05,0,0,0,9.96,0c.2-.073.391-.151.585-.23a7.047,7.047,0,0,0,2.311,2.9Zm10.346-6.892c-.372-.1-.742-.2-1.106-.3-.553-.151-.959-.859-1.265-1.571a24.578,24.578,0,0,0,5.266-4.84l6.157,3.607a5.485,5.485,0,0,0,6.787,0l9.749-5.7c5.353,1.628,8.515,3.6,8.515,9.393v3.778H147.507C144.61,59.841,140.687,58.79,137.419,57.918Z" transform="translate(-61.475)"/></g></svg>