<svg xmlns="http://www.w3.org/2000/svg" width="24.726" height="23.584" viewBox="0 0 24.726 23.584">
  <g id="icone-whatsapp" transform="translate(0.167 0.172)">
    <g id="Grupo_1" data-name="Grupo 1">
      <path id="Caminho_1" data-name="Caminho 1" d="M15.53,41.794a11.8,11.8,0,0,0,6.915,3.078A11.624,11.624,0,1,0,12.3,36.56a12.364,12.364,0,0,0,.754,1.916v-.769c-.657,1.264-1.315,2.522-1.972,3.786-.1.183-.189.362-.285.545a.772.772,0,0,0,.861,1.121L15.7,42.135c.189-.046.382-.1.571-.143a.767.767,0,0,0-.408-1.478L11.82,41.539c-.189.046-.382.1-.571.143L12.11,42.8c.6-1.121,1.182-2.247,1.768-3.378.132-.25.26-.5.392-.749.031-.056.061-.117.092-.173a1.2,1.2,0,0,0,.051-.112,1.074,1.074,0,0,0-.153-.917,10.087,10.087,0,0,1-.9-4.184c0-.3.01-.6.036-.892.01-.143.025-.28.041-.423l.015-.107c0,.01-.015.122-.005.031s.025-.163.036-.239a10.964,10.964,0,0,1,.433-1.7l.138-.382c.025-.061.051-.127.076-.189.031-.082-.005.015-.01.025a1.3,1.3,0,0,1,.056-.122c.112-.255.239-.51.372-.759a10.677,10.677,0,0,1,.907-1.406c.051-.071-.01.01-.015.02l.061-.076.127-.158c.092-.112.189-.219.285-.331.183-.209.377-.408.581-.6s.428-.392.652-.576l.158-.127c.066-.056-.015.01-.02.015a.972.972,0,0,1,.082-.061c.117-.087.234-.173.352-.255a11.44,11.44,0,0,1,1.452-.841l.367-.168c.132-.061-.071.025.066-.025.071-.031.148-.056.219-.087.265-.1.535-.194.81-.27s.555-.148.836-.209c.148-.031.3-.056.443-.082l.209-.031c-.143.02.061,0,.112-.015a10.923,10.923,0,0,1,1.778-.056c.3.015.586.041.882.076-.132-.015.025,0,.071.01a1.836,1.836,0,0,1,.2.036c.148.025.3.056.443.087a10.815,10.815,0,0,1,1.636.5,1.045,1.045,0,0,1,.127.051c-.067-.025.1.041.127.056.143.066.285.132.428.2.25.127.494.26.739.4s.474.3.7.459l.163.117c.025.02.163.122.107.082s.082.066.107.087c.061.051.122.1.178.148a10.7,10.7,0,0,1,1.187,1.167l.26.306.127.158c-.087-.107.036.051.061.087.168.224.321.454.469.693s.3.5.433.759c.061.122.122.239.178.362.031.061.056.122.087.183.015.031.025.061.041.092.005.015.061.143.025.066s.041.1.051.127c.025.061.051.127.071.189.051.138.1.28.148.418.087.27.168.545.234.826s.122.566.168.851c.005.046.031.209.01.071.01.071.015.138.025.209.015.153.031.306.041.459a11.415,11.415,0,0,1-.025,1.819c-.005.071-.015.138-.02.209-.005.051-.031.209-.01.076-.02.148-.046.3-.071.448-.051.285-.117.566-.194.841s-.158.545-.255.815c-.046.127-.1.255-.143.382-.01.031-.025.061-.041.1.005-.01.046-.107.01-.025s-.061.143-.1.214a10.562,10.562,0,0,1-.815,1.468c-.071.112-.148.224-.229.331l-.117.163a.972.972,0,0,0-.061.082c-.071.092.071-.087,0,.005-.178.229-.367.448-.566.662a11.25,11.25,0,0,1-1.223,1.136l-.076.061c.01-.005.092-.071.02-.015-.056.041-.107.082-.163.117-.117.087-.234.168-.357.25-.234.158-.469.3-.713.438s-.494.265-.749.382c-.061.031-.122.056-.183.082-.041.02-.189.076-.066.031-.138.056-.275.107-.413.158a10.886,10.886,0,0,1-1.687.464c-.138.025-.275.046-.413.071s.076-.005-.076.01c-.082.01-.163.02-.245.025-.3.031-.591.046-.887.051-.341.005-.683,0-1.019-.025-.168-.01-.336-.031-.5-.046-.092-.01-.02,0,0,0a1.02,1.02,0,0,1-.122-.02l-.285-.046a9.812,9.812,0,0,1-3.679-1.417c-.27-.168-.53-.352-.785-.545-.071-.051-.015-.015,0,0l-.092-.076L17,41.045c-.132-.112-.26-.224-.387-.341a.769.769,0,1,0-1.085,1.09Z" transform="translate(-10.704 -21.658)" fill="#fff" stroke="#fff" stroke-width="0.3"/>
    </g>
    <path id="Caminho_2" data-name="Caminho 2" d="M142.258,143.06c-1.214,1.214-4.3.1-6.891-2.5s-3.71-5.677-2.5-6.891l1.257-1.257a.562.562,0,0,1,.8,0l1.286,1.286a.562.562,0,0,1,0,.8l-.873.873c-.677.677-.082,2.39,1.358,3.834s3.191,2.068,3.868,1.392l.869-.873a.562.562,0,0,1,.8,0l1.286,1.286a.562.562,0,0,1,0,.8Z" transform="translate(-124.946 -126.912)" fill="#fff" stroke="#fff" stroke-width="0.5"/>
  </g>
</svg>
