<svg xmlns="http://www.w3.org/2000/svg" width="48.092" height="55.583" viewBox="0 0 48.092 55.583"><defs><style>.a{fill:#8a336a;}</style></defs><g transform="translate(-34.5)"><path class="a" d="M81.507,23.752a1.086,1.086,0,1,0,0-2.171H77.394V18.625h4.112a1.086,1.086,0,1,0,0-2.171H77.394V14.678a1.085,1.085,0,0,0-.318-.767l-3.139-3.142a1.085,1.085,0,0,0-.768-.318H71.393V6.342a1.086,1.086,0,0,0-2.171,0V10.45H66.265V6.342a1.086,1.086,0,0,0-2.171,0V10.45H61.141V6.56A6.562,6.562,0,0,0,48.264,4.78a9.793,9.793,0,0,0-8.784,9.741,9.832,9.832,0,0,0,.741,3.743,10.8,10.8,0,0,0,0,19.056A9.795,9.795,0,0,0,48.264,50.8a6.562,6.562,0,0,0,12.878-1.777V45.13h2.953v4.112a1.086,1.086,0,1,0,2.171,0V45.13h2.956v4.112a1.086,1.086,0,1,0,2.171,0V45.13H73.17a1.085,1.085,0,0,0,.768-.318l3.139-3.139a1.086,1.086,0,0,0,.318-.768V39.126h4.112a1.086,1.086,0,1,0,0-2.171H77.394V34h4.112a1.086,1.086,0,1,0,0-2.171H77.394V28.876h4.112a1.086,1.086,0,1,0,0-2.171H77.394V23.752ZM54.581,53.412a4.409,4.409,0,0,1-4.054-2.707A9.639,9.639,0,0,0,55.7,47.967a1.086,1.086,0,0,0-1.552-1.519,7.442,7.442,0,0,1-2.222,1.561,7.364,7.364,0,0,1-2.786.669,7.623,7.623,0,0,1-6.519-11.346,1.086,1.086,0,0,0-.542-1.539,8.622,8.622,0,0,1,0-16,1.086,1.086,0,0,0,.543-1.539A7.625,7.625,0,0,1,49.142,6.9a7.441,7.441,0,0,1,5.006,2.231A1.086,1.086,0,1,0,55.7,7.618,9.564,9.564,0,0,0,52.83,5.6a9.669,9.669,0,0,0-2.3-.721A4.39,4.39,0,0,1,58.97,6.56V19.87h-3.38l-2.88-2.88a3.853,3.853,0,1,0-1.537,1.534l3.2,3.2a1.156,1.156,0,0,0,.768.318H58.97V26.7h-6.8a3.852,3.852,0,1,0,0,2.171h6.8v4.663H55.141c-.029,0-.054,0-.077,0a1.081,1.081,0,0,0-.691.315l-3.2,3.2a3.851,3.851,0,0,0-5.7,3.382,3.852,3.852,0,1,0,7.233-1.848L55.59,35.71H58.97V49.023a4.394,4.394,0,0,1-4.389,4.389ZM51.009,15.144a1.68,1.68,0,1,1-.492-1.188A1.669,1.669,0,0,1,51.009,15.144ZM50.153,27.79a1.68,1.68,0,1,1-1.681-1.678A1.683,1.683,0,0,1,50.153,27.79Zm.856,12.65a1.662,1.662,0,0,1-.492,1.184,1.683,1.683,0,0,1-2.378,0,1.676,1.676,0,0,1,0-2.372,1.683,1.683,0,0,1,2.376,0h0A1.668,1.668,0,0,1,51.009,40.44Zm24.214.016-2.5,2.5H61.141V39.741H70.92a1.086,1.086,0,0,0,1.086-1.086V32.661a1.086,1.086,0,1,0-2.171,0V37.57H61.141V18.013h8.693v4.9a1.086,1.086,0,1,0,2.171,0V16.927a1.086,1.086,0,0,0-1.086-1.086H61.141v-3.22H72.72l2.5,2.506Z"/><path class="a" d="M361.065,245.958a1.086,1.086,0,0,0-1.086,1.086v0a1.086,1.086,0,1,0,1.086-1.089Z" transform="translate(-290.145 -219.257)"/></g></svg>