<svg xmlns="http://www.w3.org/2000/svg" width="59.893" height="60.001" viewBox="0 0 59.893 60.001"><defs><style>.a{fill:#8a336a;}</style></defs><g transform="translate(-0.983)"><path class="a" d="M32,28c.28,0-1.33.56,24.72-9.12a1,1,0,0,0,.59-1.29A27.11,27.11,0,0,0,32,0a1,1,0,0,0-1,1V27A1,1,0,0,0,32,28ZM33,2A25.12,25.12,0,0,1,55.07,17.36L33,25.56Z"/><path class="a" d="M55,33a26.87,26.87,0,0,0-1.68-9.44A1,1,0,0,0,52,23L29,31.56V7a1,1,0,0,0-1-1A27,27,0,1,0,38.4,57.91,15,15,0,0,0,55,33ZM27,8V31.74L3.93,26.31A24.87,24.87,0,0,1,27,8ZM3.46,28.26,26.7,33.72,19,56.28A25,25,0,0,1,3.46,28.26ZM20.85,56.93l7.94-23.16,23-8.54A24.53,24.53,0,0,1,53,31.72,15,15,0,0,0,36.43,56.54a24.8,24.8,0,0,1-15.58.39ZM46,58a13,13,0,1,1,9.192-3.808A13,13,0,0,1,46,58Z"/><path class="a" d="M52.71,38.29a1,1,0,0,0-1.42,0l-12,12a1,1,0,0,0,1.42,1.42l12-12a1,1,0,0,0,0-1.42Z"/><path class="a" d="M44,40a3,3,0,1,0-3,3A3,3,0,0,0,44,40Zm-4,0a1,1,0,1,1,1,1A1,1,0,0,1,40,40Z"/><path class="a" d="M51,47a3,3,0,1,0,3,3A3,3,0,0,0,51,47Zm0,4a1,1,0,1,1,1-1A1,1,0,0,1,51,51Z"/></g></svg>