<svg xmlns="http://www.w3.org/2000/svg" width="59.213" height="59.213" viewBox="0 0 59.213 59.213"><defs><style>.a{fill:#8a336a;}</style></defs><path class="a" d="M59.213,24.831H57.067l-3.2,1.683a4.748,4.748,0,0,0-1.138-.468l-4.024-1.007v-.457A6.707,6.707,0,0,0,51.573,19.1V17.431a6.862,6.862,0,0,0-6.48-6.923c-.181,0-.36,0-.54.011L45.6,8.077,40.539,3.021l-2.981,1.94a16.154,16.154,0,0,0-3.575-1.483L33.246,0H25.968l-.736,3.479a16.136,16.136,0,0,0-3.575,1.483l-2.981-1.94L13.622,8.075l1.025,2.444c-.039,0-.076-.009-.116-.01A6.688,6.688,0,0,0,7.64,17.191V19.1a6.7,6.7,0,0,0,2.865,5.48v.458L7.881,25.7,3.124,22.921H0v19.79l9.4,3.131h1.83l.229-.8,2.88,1.729A2.973,2.973,0,0,0,17.2,49.652a2.973,2.973,0,0,0,2.865,2.865,2.973,2.973,0,0,0,2.865,2.865,2.97,2.97,0,0,0,4.644,2.358l.846.747a2.908,2.908,0,0,0,1.922.726h.177a2.908,2.908,0,0,0,2.9-2.869,2.905,2.905,0,0,0,2.865-2.865,2.9,2.9,0,0,0,2.865-2.868,2.937,2.937,0,0,0,2.869-2.93,2.8,2.8,0,0,0-.014-.286l17.205-8.6Zm-9.55-7.4V19.1a4.794,4.794,0,0,1-2.39,4.133l-.478.276,0,3.022,4.772,1.192-10.5,5.528V30.679A4.752,4.752,0,0,0,39.7,27.351l3.278-.819V23.507l-.477-.276A4.789,4.789,0,0,1,40.112,19.1v-1.91a4.775,4.775,0,0,1,4.923-4.772A4.938,4.938,0,0,1,49.662,17.431ZM31.046,32.5l-4.323-1.382a11.794,11.794,0,0,0-6.12-.279l-.547.121v-.283a2.863,2.863,0,0,1,2.17-2.78L27.7,26.532V23.507l-.477-.276A4.789,4.789,0,0,1,24.831,19.1v-1.91a4.775,4.775,0,0,1,4.923-4.772,4.938,4.938,0,0,1,4.627,5.013V19.1a4.794,4.794,0,0,1-2.39,4.133l-.478.276,0,3.022,5.47,1.367a2.863,2.863,0,0,1,2.17,2.78v3.579l-.236.124h-.585L32.464,32.7A6.02,6.02,0,0,0,31.046,32.5ZM20.27,14.294A10.5,10.5,0,0,1,38.9,14.217a6.642,6.642,0,0,0-.7,2.974V19.1a6.7,6.7,0,0,0,2.865,5.48v.458L37.247,26l-3.821-.956v-.457A6.707,6.707,0,0,0,36.292,19.1V17.431a6.862,6.862,0,0,0-6.48-6.923,6.687,6.687,0,0,0-6.891,6.683V19.1a6.7,6.7,0,0,0,2.865,5.48v.458L21.966,26l-3.821-.956v-.457A6.707,6.707,0,0,0,21.011,19.1V17.431A7.039,7.039,0,0,0,20.27,14.294ZM15.878,8.518l3.051-3.051,2.686,1.748.514-.315a14.251,14.251,0,0,1,4.135-1.715l.588-.141.665-3.133H31.7l.663,3.132.588.14A14.265,14.265,0,0,1,37.084,6.9l.514.315,2.686-1.748,3.047,3.048-1.083,2.536a6.676,6.676,0,0,0-2.016,1.34c-.039.038-.073.079-.111.118a12.4,12.4,0,0,0-21.064.057,6.737,6.737,0,0,0-2.107-1.494ZM12.416,26.532V23.507l-.477-.276A4.789,4.789,0,0,1,9.55,19.1v-1.91a4.775,4.775,0,0,1,4.923-4.772A4.938,4.938,0,0,1,19.1,17.431V19.1a4.794,4.794,0,0,1-2.39,4.133l-.478.276,0,3.022,3.277.819a4.752,4.752,0,0,0-1.368,3.328v.707l-2.979.662.077-.27.036-1.765-5.037-2.938ZM1.91,24.831h.7l6.869,4.006L6.009,42.7l-4.1-1.367Zm7.8,19.1-1.88-.626L11.192,29.84l2.178,1.27v.273L9.785,43.932Zm6.531,2.749a1.078,1.078,0,0,1,.313-.757l1.679-1.679a1.071,1.071,0,0,1,1.515,1.515l-1.679,1.679a1.071,1.071,0,0,1-1.828-.757ZM19.1,49.547a1.078,1.078,0,0,1,.313-.757l1.679-1.679a1.071,1.071,0,0,1,1.515,1.515L20.929,50.3a1.071,1.071,0,0,1-1.828-.757Zm2.865,2.865a1.078,1.078,0,0,1,.313-.757l1.679-1.679a1.071,1.071,0,0,1,1.515,1.515l-1.679,1.679a1.071,1.071,0,0,1-1.828-.757ZM25.9,56.348a1.071,1.071,0,0,1-.757-1.828l1.679-1.679a1.071,1.071,0,0,1,1.515,1.515l-1.679,1.679A1.078,1.078,0,0,1,25.9,56.348Zm4.619.955h-.177a.99.99,0,0,1-.658-.249l-.714-.63.717-.717a2.969,2.969,0,0,0,.6-.887l.868.723A1,1,0,0,1,30.52,57.3Zm8.565-8.6H38.92a1.025,1.025,0,0,1-.657-.239l-5.179-4.316L31.86,45.621l5.029,4.19a1,1,0,0,1-.639,1.761h-.208a1,1,0,0,1-.637-.231l-5.187-4.322-1.224,1.468,5.029,4.191a1,1,0,0,1-.638,1.76,1.577,1.577,0,0,1-1-.364L30.249,52.3a2.971,2.971,0,0,0-2.564-1.669,2.973,2.973,0,0,0-2.865-2.865A2.973,2.973,0,0,0,21.954,44.9a2.974,2.974,0,0,0-5.077-2L15.2,44.574a2.943,2.943,0,0,0-.268.327L12,43.14l2.572-9,6.447-1.434a9.839,9.839,0,0,1,5.124.232l1.407.45-4.77,2.385a3.183,3.183,0,0,0-1.767,2.861v.189a3.2,3.2,0,0,0,4.845,2.743l3.556-2.133a1.971,1.971,0,0,1,2.29.221l8.069,7.262a1.028,1.028,0,0,1-.687,1.792ZM57.3,37.611l-16.09,8.046c-.052-.055-.107-.108-.164-.159l-8.068-7.262a3.843,3.843,0,0,0-4.552-.44l-3.558,2.133a1.288,1.288,0,0,1-1.95-1.106v-.189a1.281,1.281,0,0,1,.713-1.153l5.327-2.664a4.151,4.151,0,0,1,2.977-.276l6,1.714,1.454.036L57.3,26.865Zm0,0"/></svg>