<svg xmlns="http://www.w3.org/2000/svg" width="53.73" height="55.583" viewBox="0 0 53.73 55.583"><defs><style>.a{fill:#8a336a;}</style></defs><path class="a" d="M22.233,30.142a.926.926,0,0,1,.639-.871A17.527,17.527,0,0,0,35.2,12.485V8.779A2.779,2.779,0,0,0,32.423,6H2.779A2.779,2.779,0,0,0,0,8.779v3.706A17.527,17.527,0,0,0,12.33,29.271a.926.926,0,0,1,.639.871v1.742a.926.926,0,0,1-.639.871A17.527,17.527,0,0,0,0,49.54v3.706a2.779,2.779,0,0,0,2.779,2.779H32.423A2.779,2.779,0,0,0,35.2,53.246V49.54a17.527,17.527,0,0,0-12.33-16.786.926.926,0,0,1-.639-.871ZM1.853,8.779a.926.926,0,0,1,.926-.926H32.423a.926.926,0,0,1,.926.926v2.779H1.853Zm31.5,4.632A15.61,15.61,0,0,1,31.5,19.9H3.706a15.61,15.61,0,0,1-1.853-6.485ZM12.877,27.5a15.749,15.749,0,0,1-8.013-5.753H30.339A15.749,15.749,0,0,1,22.317,27.5a2.779,2.779,0,0,0-1.936,2.223l-1.519,1.482a1.853,1.853,0,0,1-2.594,0l-1.445-1.482A2.779,2.779,0,0,0,12.877,27.5ZM33.35,53.246a.926.926,0,0,1-.926.926H2.779a.926.926,0,0,1-.926-.926V50.466h31.5ZM17.6,38.423a11.117,11.117,0,0,1,11.117,10.19H6.531A11.117,11.117,0,0,1,17.6,38.423Zm4.725-3.9A15.674,15.674,0,0,1,33.35,48.614H30.571A12.969,12.969,0,0,0,18.528,36.571v-.926a.926.926,0,0,0-1.853,0v.926a12.969,12.969,0,0,0-12,12.043H1.853a15.674,15.674,0,0,1,11.033-14.09,2.779,2.779,0,0,0,1.936-2.2l.213.213a3.706,3.706,0,0,0,5.206,0l.213-.213a2.779,2.779,0,0,0,1.871,2.2Z" transform="translate(0 -0.442)"/><path class="a" d="M54.969,54.423V24.779c0-3.706-12.969-3.706-12.969,0V54.423C42,58.129,54.969,58.129,54.969,54.423ZM53.117,28.4c-.269.324-1.853,1.01-4.632,1.01s-4.363-.686-4.632-1.01V26.817a14.822,14.822,0,0,0,9.264,0Zm0,2.121v1.584c-.269.324-1.853,1.01-4.632,1.01s-4.363-.686-4.632-1.01V30.523A14.822,14.822,0,0,0,53.117,30.523Zm0,3.706v1.584c-.269.324-1.853,1.01-4.632,1.01s-4.363-.686-4.632-1.01V34.228A14.822,14.822,0,0,0,53.117,34.228Zm0,3.706v1.584c-.269.324-1.853,1.01-4.632,1.01s-4.363-.686-4.632-1.01V37.934A14.822,14.822,0,0,0,53.117,37.934Zm0,3.706v1.584c-.269.324-1.853,1.01-4.632,1.01s-4.363-.686-4.632-1.01V41.639A14.822,14.822,0,0,0,53.117,41.639Zm0,3.706v1.584c-.269.324-1.853,1.01-4.632,1.01s-4.363-.686-4.632-1.01V45.345A14.822,14.822,0,0,0,53.117,45.345ZM43.853,49.05a14.822,14.822,0,0,0,9.264,0v1.584c-.269.324-1.853,1.01-4.632,1.01s-4.363-.686-4.632-1.01Zm4.632-25.2a8.637,8.637,0,0,1,4.549.926,8.637,8.637,0,0,1-4.549.926,8.637,8.637,0,0,1-4.549-.926A8.637,8.637,0,0,1,48.485,23.853Zm-4.632,28.9a14.822,14.822,0,0,0,9.264,0v1.593c-.269.315-1.853,1-4.632,1s-4.363-.686-4.632-1Z" transform="translate(-3.092 -1.62)"/><path class="a" d="M48.337,0a8.337,8.337,0,1,0,5.9,2.442A8.337,8.337,0,0,0,48.337,0Zm0,14.822a6.485,6.485,0,1,1,6.485-6.485,6.485,6.485,0,0,1-6.485,6.485Z" transform="translate(-2.945)"/><path class="a" d="M48.779,5.853a.926.926,0,0,1,.926.926.926.926,0,0,0,.926.926C52.4,7.706,51.558,4,48.779,4a2.779,2.779,0,1,0,0,5.558.926.926,0,1,1-.926.926.926.926,0,0,0-.926-.926c-1.769,0-.926,3.706,1.853,3.706a2.779,2.779,0,0,0,0-5.558.926.926,0,1,1,0-1.853Z" transform="translate(-3.386 -0.294)"/></svg>