<svg xmlns="http://www.w3.org/2000/svg" width="151.598" height="144.554" viewBox="0 0 151.598 144.554"><defs><style>.a{fill:#4c2f6e;}</style></defs><g transform="translate(0 -11.894)"><path class="a" d="M151.284,30.659a2.961,2.961,0,0,0-3.973-1.322l-3.146,1.575c.278-.927.447-1.583.461-1.637,1.477-5.67.392-10.534-3.139-14.064-3.645-3.645-9.012-4.289-15.954-1.915-5.364,1.835-11.709,5.437-19.365,10.992a70.477,70.477,0,0,0-22.9-8.365,71.482,71.482,0,0,0-21.564-.509,2.961,2.961,0,1,0,.754,5.874,65.408,65.408,0,0,1,17.332.084v1.281a8.323,8.323,0,0,0,2.426,5.855l6.1,6.1c1.949,1.949-.713,3.815-1.55,5.481-8.456,7.493-18.074,16.646-29.232,27.8q-6.453,6.453-12.03,12.24V78.071a8.02,8.02,0,0,0-2.37-5.72L27.65,56.862a2.143,2.143,0,0,1-.632-1.529V37.769a65.121,65.121,0,0,1,12.095-8.758,2.961,2.961,0,0,0-2.9-5.165C15.523,35.455.054,58.688.054,82.86.018,83.807,0,84.742,0,85.639A70.363,70.363,0,0,0,10.08,122.1a63.885,63.885,0,0,0-7.138,13.785C.567,142.829,1.212,148.2,4.856,151.841c5.924,5.924,14.447,3.766,20.955.151a2.961,2.961,0,0,0-2.876-5.177c-4.056,2.253-10.019,4.711-13.892.839C5.9,144.51,7.561,137.477,13.684,127.5a71.794,71.794,0,0,0,7.056,8.21,70.346,70.346,0,0,0,50.07,20.74,70.751,70.751,0,0,0,70.813-70.809,71.353,71.353,0,0,0-30.077-57.915C124.5,18.654,133.6,15.693,137.3,19.4c1.99,1.99,2.527,4.811,1.593,8.395-.005.02-.391,1.514-.944,3.109l-2.926-4.31a2.961,2.961,0,1,0-4.9,3.326l5.965,8.786a3,3,0,0,0,3.775.984l10.1-5.056a2.961,2.961,0,0,0,1.322-3.973Zm-42.269,2.533a64.937,64.937,0,0,1,25.978,62.04,2.354,2.354,0,0,1-1.166-.641L126.74,87.5a8.228,8.228,0,0,0-5.855-2.426h-7.026a2.361,2.361,0,0,1-2.36-2.356V75.4a8.336,8.336,0,0,0-2.422-5.855L92.5,52.966a2.364,2.364,0,0,1-.688-1.664V43.8a2.33,2.33,0,0,1,.02-.284c5.332-4.687,10.181-8.685,14.643-12.078Q107.765,32.284,109.015,33.192ZM92.5,30.418l-6.1-6.1a2.364,2.364,0,0,1-.688-1.664.77.77,0,0,1,0-.177,64.612,64.612,0,0,1,15.27,5.716q-3.145,2.45-6.539,5.282a8.244,8.244,0,0,0-1.94-3.054Zm-44.826,64.8H63.312a2.172,2.172,0,0,1,2.169,2.169v20.17a2.184,2.184,0,0,1-.636,1.533L41.206,142.726a.693.693,0,0,1-1.179-.49V119.03a8.034,8.034,0,0,0-2.367-5.721l-7.58-7.577c3.466-4.051,7.352-8.391,11.705-13.071a8.072,8.072,0,0,0,5.893,2.553ZM38.952,76.541a2.143,2.143,0,0,1,.632,1.529v8.278q-6.3,6.708-11.439,12.575V88.1a8.1,8.1,0,0,0-8.095-8.091H6.164A64.769,64.769,0,0,1,21.1,43.935v11.4a8.02,8.02,0,0,0,2.37,5.72ZM5.925,85.934H20.049A2.174,2.174,0,0,1,22.222,88.1V102.9a8.125,8.125,0,0,0,.395,2.506c-3.038,3.661-5.729,7.089-8.1,10.321-.241.328-.473.65-.706.973A64.525,64.525,0,0,1,5.925,85.934Zm11.249,36.248q1.007-1.447,2.113-2.955,3.1-4.222,6.974-8.94l7.213,7.209a2.152,2.152,0,0,1,.632,1.533v20.134a65.69,65.69,0,0,1-16.931-16.982Zm29.307,23.644,22.552-22.552a8.148,8.148,0,0,0,2.37-5.721V97.384a8.1,8.1,0,0,0-8.091-8.091H47.678a2.172,2.172,0,0,1-1.811-.975C50.632,83.3,55.9,77.9,61.723,72.077c9.015-9.015,17-16.7,24.168-23.238V51.3a8.322,8.322,0,0,0,2.426,5.855l16.573,16.576a2.373,2.373,0,0,1,.688,1.668v7.321A8.289,8.289,0,0,0,113.859,91h7.026a2.376,2.376,0,0,1,1.668.692l7.084,7.083a8.26,8.26,0,0,0,4.219,2.274,64.457,64.457,0,0,1-3.239,9.8,10.257,10.257,0,0,0-1.5-.115H114.985a10.255,10.255,0,0,0-7.3,3.021l-4.105,4.106a10.42,10.42,0,0,0,0,14.594L109.13,138a65.047,65.047,0,0,1-62.649,7.824Zm80.61-27.873a66.174,66.174,0,0,1-10.068,13.227c-1.048,1.068-2.137,2.092-3.257,3.083l-5.992-5.992a4.45,4.45,0,0,1-.006-6.224l4.105-4.106a4.432,4.432,0,0,1,3.112-1.286h12.832C127.579,117.09,127.339,117.524,127.091,117.954Z"/><path class="a" d="M158.274,37.171a2.96,2.96,0,1,0,1.6-3.867A2.988,2.988,0,0,0,158.274,37.171Z" transform="translate(-111.256 -14.916)"/></g></svg>